<svg xmlns="http://www.w3.org/2000/svg" width="34.35" height="33.492" viewBox="0 0 34.35 33.492">
  <defs>
    <style>
      .cls-1 {
        fill: #fff;
      }

      .cls-1:hover {
        fill: #f35d48;
      }
    </style>
  </defs>
  <path id="Icon_awesome-github" data-name="Icon awesome-github" class="cls-1" d="M11.489,27.53c0,.139-.159.249-.36.249-.229.021-.388-.09-.388-.249,0-.139.159-.249.36-.249C11.309,27.26,11.489,27.371,11.489,27.53Zm-2.154-.312c-.048.139.09.3.3.339a.325.325,0,0,0,.429-.139c.042-.139-.09-.3-.3-.36A.355.355,0,0,0,9.335,27.218ZM12.4,27.1c-.2.048-.339.18-.319.339.021.139.2.229.409.18s.339-.18.319-.319S12.6,27.08,12.4,27.1ZM16.953.562A16.606,16.606,0,0,0,0,17.46,17.363,17.363,0,0,0,11.739,34.026c.886.159,1.2-.388,1.2-.838,0-.429-.021-2.8-.021-4.252,0,0-4.848,1.039-5.866-2.064,0,0-.789-2.015-1.925-2.535,0,0-1.586-1.087.111-1.067a3.656,3.656,0,0,1,2.673,1.787A3.661,3.661,0,0,0,12.957,26.5a3.849,3.849,0,0,1,1.108-2.334c-3.871-.429-7.777-.99-7.777-7.653A5.249,5.249,0,0,1,7.923,12.44a6.543,6.543,0,0,1,.18-4.7c1.447-.45,4.779,1.87,4.779,1.87a16.361,16.361,0,0,1,8.7,0s3.331-2.327,4.779-1.87a6.54,6.54,0,0,1,.18,4.7,5.383,5.383,0,0,1,1.787,4.079c0,6.683-4.079,7.216-7.95,7.653a4.1,4.1,0,0,1,1.177,3.213c0,2.334-.021,5.222-.021,5.79,0,.45.319,1,1.2.838A17.2,17.2,0,0,0,34.35,17.46C34.35,7.855,26.559.562,16.953.562ZM6.731,24.448c-.09.069-.069.229.048.36.111.111.27.159.36.069.09-.069.069-.229-.048-.36C6.981,24.407,6.822,24.358,6.731,24.448Zm-.748-.561c-.048.09.021.2.159.27a.206.206,0,0,0,.3-.048c.048-.09-.021-.2-.159-.27C6.143,23.8,6.032,23.818,5.984,23.887Zm2.244,2.465c-.111.09-.069.3.09.429.159.159.36.18.45.069.09-.09.048-.3-.09-.429C8.525,26.263,8.317,26.242,8.227,26.353Zm-.789-1.018c-.111.069-.111.249,0,.409s.3.229.388.159a.316.316,0,0,0,0-.429C7.729,25.314,7.549,25.245,7.438,25.335Z" transform="translate(0 -0.563)"/>
</svg>
