<svg xmlns="http://www.w3.org/2000/svg" width="33.126" height="33.119" viewBox="0 0 33.126 33.119"><defs><style>.a{fill:#fff;}</style></defs><path class="a" d="M16.561,10.306A8.491,8.491,0,1,0,25.053,18.8,8.478,8.478,0,0,0,16.561,10.306Zm0,14.012a5.52,5.52,0,1,1,5.52-5.52A5.53,5.53,0,0,1,16.561,24.317ZM27.381,9.959A1.981,1.981,0,1,1,25.4,7.978,1.976,1.976,0,0,1,27.381,9.959ZM33,11.969a9.8,9.8,0,0,0-2.675-6.939A9.866,9.866,0,0,0,23.39,2.354c-2.734-.155-10.93-.155-13.664,0A9.852,9.852,0,0,0,2.786,5.022,9.833,9.833,0,0,0,.111,11.961c-.155,2.734-.155,10.93,0,13.664a9.8,9.8,0,0,0,2.675,6.939A9.878,9.878,0,0,0,9.726,35.24c2.734.155,10.93.155,13.664,0a9.8,9.8,0,0,0,6.939-2.675A9.866,9.866,0,0,0,33,25.626c.155-2.734.155-10.923,0-13.657ZM29.472,28.559a5.589,5.589,0,0,1-3.148,3.148c-2.18.865-7.353.665-9.762.665s-7.59.192-9.762-.665a5.589,5.589,0,0,1-3.148-3.148c-.865-2.18-.665-7.353-.665-9.762s-.192-7.59.665-9.762A5.589,5.589,0,0,1,6.8,5.887c2.18-.865,7.353-.665,9.762-.665s7.59-.192,9.762.665a5.589,5.589,0,0,1,3.148,3.148c.865,2.18.665,7.353.665,9.762S30.337,26.387,29.472,28.559Z" transform="translate(0.005 -2.238)"/></svg>