<svg xmlns="http://www.w3.org/2000/svg" width="40.481" height="32.878" viewBox="0 0 40.481 32.878"><defs><style>.a{fill:#fff;}</style></defs><path class="a" d="M36.32,11.575c.026.36.026.719.026,1.079,0,10.968-8.348,23.606-23.606,23.606A23.446,23.446,0,0,1,0,32.535a17.163,17.163,0,0,0,2,.1,16.616,16.616,0,0,0,10.3-3.545,8.311,8.311,0,0,1-7.757-5.754,10.462,10.462,0,0,0,1.567.128A8.775,8.775,0,0,0,8.3,23.185a8.3,8.3,0,0,1-6.653-8.143v-.1a8.356,8.356,0,0,0,3.75,1.053A8.309,8.309,0,0,1,2.825,4.9a23.583,23.583,0,0,0,17.107,8.682,9.366,9.366,0,0,1-.205-1.9A8.3,8.3,0,0,1,34.086,6a16.335,16.335,0,0,0,5.266-2A8.274,8.274,0,0,1,35.7,8.569a16.632,16.632,0,0,0,4.778-1.284,17.835,17.835,0,0,1-4.161,4.29Z" transform="translate(0 -3.381)"/></svg>