<svg xmlns="http://www.w3.org/2000/svg" width="46.868" height="32.954" viewBox="0 0 46.868 32.954"><defs><style>.a{fill:#fff;}</style></defs><path class="a" d="M46.939,9.656A5.889,5.889,0,0,0,42.8,5.486C39.14,4.5,24.484,4.5,24.484,4.5s-14.656,0-18.311.986A5.889,5.889,0,0,0,2.029,9.656C1.05,13.335,1.05,21.01,1.05,21.01s0,7.675.979,11.354a5.8,5.8,0,0,0,4.144,4.1c3.655.986,18.311.986,18.311.986s14.656,0,18.311-.986a5.8,5.8,0,0,0,4.144-4.1c.979-3.679.979-11.354.979-11.354s0-7.675-.979-11.354ZM19.691,27.979V14.042l12.25,6.969-12.25,6.969Z" transform="translate(-1.05 -4.5)"/></svg>